<svg version="1.1" xmlns="http://www.w3.org/2000/svg" width="300" height="300"><defs><clipPath id="NQnhfIBDoJaB"><path fill="none" stroke="none" d="M 5.5 5.5 L 295.5 5.5 L 295.5 295.5 L 5.5 295.5 L 5.5 5.5 Z"/></clipPath><clipPath id="sCEnAuUsvFVg"><path fill="none" stroke="none" d="M 5.5 5.5 L 295.5 5.5 L 295.5 295.5 L 5.5 295.5 L 5.5 5.5 Z"/></clipPath><clipPath id="yNPJmZOcSwPg"><path fill="none" stroke="none" d="M 5.5 5.5 L 295.5 5.5 L 295.5 295.5 L 5.5 295.5 L 5.5 5.5 Z"/></clipPath><clipPath id="IZQMHLcBlHOk"><path fill="none" stroke="none" d="M 5.5 5.5 L 295.5 5.5 L 295.5 295.5 L 5.5 295.5 L 5.5 5.5 Z"/></clipPath><clipPath id="QNtmBairVxte"><path fill="none" stroke="none" d="M 5.5 5.5 L 295.5 5.5 L 295.5 295.5 L 5.5 295.5 L 5.5 5.5 Z"/></clipPath><clipPath id="mihHXHcmnXnH"><path fill="none" stroke="none" d="M 5.5 5.5 L 295.5 5.5 L 295.5 295.5 L 5.5 295.5 L 5.5 5.5 Z"/></clipPath></defs><path fill="rgb(255,255,255)" stroke="none" paint-order="stroke" d="M 0.5 0.5 L 300.5 0.5 L 300.5 300.5 L 0.5 300.5 L 0.5 0.5 Z" fill-opacity="1"/><rect fill="#FFFFFF" stroke="none" x="5" y="5" width="290" height="290" transform="matrix(1, 0, 0, 1, 0.5, 0.5)"/><path fill="rgb(255,255,255)" stroke="none" paint-order="stroke" d="M 5.5 5.5 L 295.5 5.5 L 295.5 295.5 L 5.5 295.5 L 5.5 5.5 Z" fill-opacity="1"/><path fill="none" stroke="rgb(229,229,229)" paint-order="fill" d="M 5.5 5.5 L 295.5 5.5 L 295.5 295.5 L 5.5 295.5 L 5.5 5.5 Z" stroke-opacity="1" stroke-linejoin="bevel" stroke-miterlimit="10"/><path fill="rgb(251,231,35)" stroke="rgb(251,231,35)" paint-order="fill" d="M 53.83333206176758 247.1666717529297 L 53.83333206176758 53.83333206176758 L 150.5 150.5 Z" fill-opacity="0.2" clip-path="url(#yNPJmZOcSwPg)" stroke-opacity="0.2" stroke-linejoin="bevel" stroke-miterlimit="10" stroke-width="2"/><path fill="rgb(251,231,35)" stroke="rgb(251,231,35)" paint-order="fill" d="M 150.5 150.5 L 247.1666717529297 53.83333206176758 L 247.1666717529297 247.1666717529297 Z" fill-opacity="0.2" clip-path="url(#yNPJmZOcSwPg)" stroke-opacity="0.2" stroke-linejoin="bevel" stroke-miterlimit="10" stroke-width="2"/><path fill="none" stroke="rgb(33,145,140)" paint-order="fill" d="M 53.83333206176758 247.1666717529297 L 53.83333206176758 53.83333206176758" stroke-opacity="1" stroke-linejoin="bevel" stroke-miterlimit="10" stroke-width="0.75" clip-path="url(#IZQMHLcBlHOk)"/><path fill="none" stroke="rgb(33,145,140)" paint-order="fill" d="M 53.83333206176758 247.1666717529297 L 150.5 150.5" stroke-opacity="1" stroke-linejoin="bevel" stroke-miterlimit="10" stroke-width="0.75" clip-path="url(#IZQMHLcBlHOk)"/><path fill="none" stroke="rgb(33,145,140)" paint-order="fill" d="M 53.83333206176758 53.83333206176758 L 150.5 150.5" stroke-opacity="1" stroke-linejoin="bevel" stroke-miterlimit="10" stroke-width="0.75" clip-path="url(#IZQMHLcBlHOk)"/><path fill="none" stroke="rgb(33,145,140)" paint-order="fill" d="M 150.5 150.5 L 247.1666717529297 53.83333206176758" stroke-opacity="1" stroke-linejoin="bevel" stroke-miterlimit="10" stroke-width="0.75" clip-path="url(#IZQMHLcBlHOk)"/><path fill="none" stroke="rgb(33,145,140)" paint-order="fill" d="M 150.5 150.5 L 247.1666717529297 247.1666717529297" stroke-opacity="1" stroke-linejoin="bevel" stroke-miterlimit="10" stroke-width="0.75" clip-path="url(#IZQMHLcBlHOk)"/><path fill="none" stroke="rgb(33,145,140)" paint-order="fill" d="M 247.1666717529297 53.83333206176758 L 247.1666717529297 247.1666717529297" stroke-opacity="1" stroke-linejoin="bevel" stroke-miterlimit="10" stroke-width="0.75" clip-path="url(#IZQMHLcBlHOk)"/><path fill="rgb(68,2,86)" stroke="rgb(68,2,86)" paint-order="fill" d="M 58.83333206176758 247.1666717529297 A 5 5 0 0 1 48.83333206176758 247.1666717529297 A 5 5 0 0 1 58.83333206176758 247.1666717529297" fill-opacity="1" clip-path="url(#QNtmBairVxte)" stroke-opacity="1" stroke-linejoin="bevel" stroke-miterlimit="10"/><path fill="rgb(68,2,86)" stroke="rgb(68,2,86)" paint-order="fill" d="M 58.83333206176758 53.83333206176758 A 5 5 0 0 1 48.83333206176758 53.83333206176758 A 5 5 0 0 1 58.83333206176758 53.83333206176758" fill-opacity="1" clip-path="url(#QNtmBairVxte)" stroke-opacity="1" stroke-linejoin="bevel" stroke-miterlimit="10"/><path fill="rgb(68,2,86)" stroke="rgb(68,2,86)" paint-order="fill" d="M 155.5 150.5 A 5 5 0 0 1 145.5 150.5 A 5 5 0 0 1 155.5 150.5" fill-opacity="1" clip-path="url(#QNtmBairVxte)" stroke-opacity="1" stroke-linejoin="bevel" stroke-miterlimit="10"/><path fill="rgb(68,2,86)" stroke="rgb(68,2,86)" paint-order="fill" d="M 252.1666717529297 53.83333206176758 A 5 5 0 0 1 242.1666717529297 53.83333206176758 A 5 5 0 0 1 252.1666717529297 53.83333206176758" fill-opacity="1" clip-path="url(#QNtmBairVxte)" stroke-opacity="1" stroke-linejoin="bevel" stroke-miterlimit="10"/><path fill="rgb(68,2,86)" stroke="rgb(68,2,86)" paint-order="fill" d="M 252.1666717529297 247.1666717529297 A 5 5 0 0 1 242.1666717529297 247.1666717529297 A 5 5 0 0 1 252.1666717529297 247.1666717529297" fill-opacity="1" clip-path="url(#QNtmBairVxte)" stroke-opacity="1" stroke-linejoin="bevel" stroke-miterlimit="10"/><g clip-path="url(#mihHXHcmnXnH)"><text fill="rgb(0,0,0)" stroke="none" font-family="helvetica" font-size="16px" font-style="normal" font-weight="normal" text-decoration="normal" x="0" y="14" text-anchor="start" dominant-baseline="alphabetic" transform="matrix(1, 0, 0, 1, 64.63333206176758, 239.6666717529297)" fill-opacity="1">a</text></g><g clip-path="url(#mihHXHcmnXnH)"><text fill="none" stroke="rgb(0,0,0)" font-family="helvetica" font-size="16px" font-style="normal" font-weight="normal" text-decoration="normal" x="0" y="14" text-anchor="start" dominant-baseline="alphabetic" transform="matrix(1, 0, 0, 1, 64.63333206176758, 239.6666717529297)" stroke-opacity="0" stroke-miterlimit="10" stroke-dasharray="">a</text></g><g clip-path="url(#mihHXHcmnXnH)"><text fill="rgb(0,0,0)" stroke="none" font-family="helvetica" font-size="16px" font-style="normal" font-weight="normal" text-decoration="normal" x="0" y="14" text-anchor="start" dominant-baseline="alphabetic" transform="matrix(1, 0, 0, 1, 64.63333206176758, 46.33333206176758)" fill-opacity="1">b</text></g><g clip-path="url(#mihHXHcmnXnH)"><text fill="none" stroke="rgb(0,0,0)" font-family="helvetica" font-size="16px" font-style="normal" font-weight="normal" text-decoration="normal" x="0" y="14" text-anchor="start" dominant-baseline="alphabetic" transform="matrix(1, 0, 0, 1, 64.63333206176758, 46.33333206176758)" stroke-opacity="0" stroke-miterlimit="10" stroke-dasharray="">b</text></g><g clip-path="url(#mihHXHcmnXnH)"><text fill="rgb(0,0,0)" stroke="none" font-family="helvetica" font-size="16px" font-style="normal" font-weight="normal" text-decoration="normal" x="0" y="14" text-anchor="start" dominant-baseline="alphabetic" transform="matrix(1, 0, 0, 1, 161.3, 143)" fill-opacity="1">c</text></g><g clip-path="url(#mihHXHcmnXnH)"><text fill="none" stroke="rgb(0,0,0)" font-family="helvetica" font-size="16px" font-style="normal" font-weight="normal" text-decoration="normal" x="0" y="14" text-anchor="start" dominant-baseline="alphabetic" transform="matrix(1, 0, 0, 1, 161.3, 143)" stroke-opacity="0" stroke-miterlimit="10" stroke-dasharray="">c</text></g><g clip-path="url(#mihHXHcmnXnH)"><text fill="rgb(0,0,0)" stroke="none" font-family="helvetica" font-size="16px" font-style="normal" font-weight="normal" text-decoration="normal" x="0" y="14" text-anchor="start" dominant-baseline="alphabetic" transform="matrix(1, 0, 0, 1, 257.9666717529297, 46.33333206176758)" fill-opacity="1">d</text></g><g clip-path="url(#mihHXHcmnXnH)"><text fill="none" stroke="rgb(0,0,0)" font-family="helvetica" font-size="16px" font-style="normal" font-weight="normal" text-decoration="normal" x="0" y="14" text-anchor="start" dominant-baseline="alphabetic" transform="matrix(1, 0, 0, 1, 257.9666717529297, 46.33333206176758)" stroke-opacity="0" stroke-miterlimit="10" stroke-dasharray="">d</text></g><g clip-path="url(#mihHXHcmnXnH)"><text fill="rgb(0,0,0)" stroke="none" font-family="helvetica" font-size="16px" font-style="normal" font-weight="normal" text-decoration="normal" x="0" y="11.4765625" text-anchor="start" dominant-baseline="alphabetic" transform="matrix(1, 0, 0, 1, 257.9666717529297, 246.1901092529297)" fill-opacity="1">e</text></g><g clip-path="url(#mihHXHcmnXnH)"><text fill="none" stroke="rgb(0,0,0)" font-family="helvetica" font-size="16px" font-style="normal" font-weight="normal" text-decoration="normal" x="0" y="11.4765625" text-anchor="start" dominant-baseline="alphabetic" transform="matrix(1, 0, 0, 1, 257.9666717529297, 246.1901092529297)" stroke-opacity="0" stroke-miterlimit="10" stroke-dasharray="">e</text></g></svg>