<svg version="1.1" xmlns="http://www.w3.org/2000/svg" width="400" height="400"><defs><clipPath id="wIBkJxVKWVzl"><path fill="none" stroke="none" d="M 49.5 27.5 L 395.5 27.5 L 395.5 355.5 L 49.5 355.5 L 49.5 27.5 Z"/></clipPath><clipPath id="AlVfaJxMhtBf"><path fill="none" stroke="none" d="M 49.5 27.5 L 395.5 27.5 L 395.5 355.5 L 49.5 355.5 L 49.5 27.5 Z"/></clipPath><clipPath id="DgluGrqFeyki"><path fill="none" stroke="none" d="M 49.5 27.5 L 395.5 27.5 L 395.5 355.5 L 49.5 355.5 L 49.5 27.5 Z"/></clipPath><clipPath id="yUQzLUmgSngD"><path fill="none" stroke="none" d="M 49.5 27.5 L 395.5 27.5 L 395.5 355.5 L 49.5 355.5 L 49.5 27.5 Z"/></clipPath><clipPath id="xKGCyObuTsyV"><path fill="none" stroke="none" d="M 49.5 27.5 L 395.5 27.5 L 395.5 355.5 L 49.5 355.5 L 49.5 27.5 Z"/></clipPath><clipPath id="IwUnuBGIAaFU"><path fill="none" stroke="none" d="M 49.5 27.5 L 395.5 27.5 L 395.5 355.5 L 49.5 355.5 L 49.5 27.5 Z"/></clipPath></defs><path fill="rgb(255,255,255)" stroke="none" paint-order="stroke" d="M 0.5 0.5 L 400.5 0.5 L 400.5 400.5 L 0.5 400.5 L 0.5 0.5 Z" fill-opacity="1"/><rect fill="#FFFFFF" stroke="none" x="49" y="27" width="346" height="328" transform="matrix(1, 0, 0, 1, 0.5, 0.5)"/><path fill="rgb(255,255,255)" stroke="none" paint-order="stroke" d="M 49.5 27.5 L 395.5 27.5 L 395.5 355.5 L 49.5 355.5 L 49.5 27.5 Z" fill-opacity="1"/><path fill="none" stroke="rgb(229,229,229)" paint-order="fill" d="M 49.5 27.5 L 395.5 27.5 L 395.5 355.5 L 49.5 355.5 L 49.5 27.5 Z" stroke-opacity="1" stroke-linejoin="bevel" stroke-miterlimit="10"/><path fill="none" stroke="rgb(229,229,229)" paint-order="fill" d="M 92.5 355.5 L 92.5 27.5 M 136.5 355.5 L 136.5 27.5 M 179.5 355.5 L 179.5 27.5 M 222.5 355.5 L 222.5 27.5 M 265.5 355.5 L 265.5 27.5 M 309.5 355.5 L 309.5 27.5 M 352.5 355.5 L 352.5 27.5" stroke-opacity="1" stroke-linejoin="bevel" stroke-miterlimit="10" clip-path="url(#wIBkJxVKWVzl)"/><path fill="none" stroke="rgb(229,229,229)" paint-order="fill" d="M 49.5 314.5 L 395.5 314.5 M 49.5 273.5 L 395.5 273.5 M 49.5 232.5 L 395.5 232.5 M 49.5 191.5 L 395.5 191.5 M 49.5 150.5 L 395.5 150.5 M 49.5 109.5 L 395.5 109.5 M 49.5 68.5 L 395.5 68.5" stroke-opacity="1" stroke-linejoin="bevel" stroke-miterlimit="10" clip-path="url(#AlVfaJxMhtBf)"/><path fill="rgb(128,128,128)" stroke="none" paint-order="stroke" d="M -4210.625 4394 L 4698.875 4394 L 4698.875 -4052 Z" fill-opacity="0.8" clip-path="url(#DgluGrqFeyki)"/><path fill="rgb(31,119,180)" stroke="rgb(31,119,180)" paint-order="fill" d="M 138.5 109.5 A 2.5 2.5 0 0 1 133.5 109.5 A 2.5 2.5 0 0 1 138.5 109.5" fill-opacity="1" clip-path="url(#yUQzLUmgSngD)" stroke-opacity="1" stroke-linejoin="bevel" stroke-miterlimit="10"/><path fill="rgb(31,119,180)" stroke="rgb(31,119,180)" paint-order="fill" d="M 268.25 68.5 A 2.5 2.5 0 0 1 263.25 68.5 A 2.5 2.5 0 0 1 268.25 68.5" fill-opacity="1" clip-path="url(#yUQzLUmgSngD)" stroke-opacity="1" stroke-linejoin="bevel" stroke-miterlimit="10"/><path fill="rgb(255,0,0)" stroke="rgb(255,0,0)" paint-order="fill" d="M 141 109.5 A 5 5 0 0 1 131 109.5 A 5 5 0 0 1 141 109.5" fill-opacity="1" clip-path="url(#xKGCyObuTsyV)" stroke-opacity="1" stroke-linejoin="bevel" stroke-miterlimit="10"/><path fill="rgb(255,0,0)" stroke="rgb(255,0,0)" paint-order="fill" d="M 270.75 68.5 A 5 5 0 0 1 260.75 68.5 A 5 5 0 0 1 270.75 68.5" fill-opacity="1" clip-path="url(#xKGCyObuTsyV)" stroke-opacity="1" stroke-linejoin="bevel" stroke-miterlimit="10"/><path fill="none" stroke="rgb(0,0,0)" paint-order="fill" d="M 49.5 355.5 L 395.5 355.5" stroke-opacity="1" stroke-linejoin="bevel" stroke-miterlimit="10"/><path fill="none" stroke="rgb(0,0,0)" paint-order="fill" d="M 49.5 361.5 L 49.5 353.5 M 92.5 361.5 L 92.5 353.5 M 136.5 361.5 L 136.5 353.5 M 179.5 361.5 L 179.5 353.5 M 222.5 361.5 L 222.5 353.5 M 265.5 361.5 L 265.5 353.5 M 309.5 361.5 L 309.5 353.5 M 352.5 361.5 L 352.5 353.5 M 395.5 361.5 L 395.5 353.5" stroke-opacity="1" stroke-linejoin="bevel" stroke-miterlimit="10"/><path fill="none" stroke="rgb(0,0,0)" paint-order="fill" d="M 49.5 359.5 L 49.5 355.5 M 58.5 359.5 L 58.5 355.5 M 66.5 359.5 L 66.5 355.5 M 75.5 359.5 L 75.5 355.5 M 84.5 359.5 L 84.5 355.5 M 92.5 359.5 L 92.5 355.5 M 101.5 359.5 L 101.5 355.5 M 110.5 359.5 L 110.5 355.5 M 118.5 359.5 L 118.5 355.5 M 127.5 359.5 L 127.5 355.5 M 136.5 359.5 L 136.5 355.5 M 144.5 359.5 L 144.5 355.5 M 153.5 359.5 L 153.5 355.5 M 161.5 359.5 L 161.5 355.5 M 170.5 359.5 L 170.5 355.5 M 179.5 359.5 L 179.5 355.5 M 187.5 359.5 L 187.5 355.5 M 196.5 359.5 L 196.5 355.5 M 205.5 359.5 L 205.5 355.5 M 213.5 359.5 L 213.5 355.5 M 222.5 359.5 L 222.5 355.5 M 231.5 359.5 L 231.5 355.5 M 239.5 359.5 L 239.5 355.5 M 248.5 359.5 L 248.5 355.5 M 257.5 359.5 L 257.5 355.5 M 265.5 359.5 L 265.5 355.5 M 274.5 359.5 L 274.5 355.5 M 283.5 359.5 L 283.5 355.5 M 291.5 359.5 L 291.5 355.5 M 300.5 359.5 L 300.5 355.5 M 309.5 359.5 L 309.5 355.5 M 317.5 359.5 L 317.5 355.5 M 326.5 359.5 L 326.5 355.5 M 334.5 359.5 L 334.5 355.5 M 343.5 359.5 L 343.5 355.5 M 352.5 359.5 L 352.5 355.5 M 360.5 359.5 L 360.5 355.5 M 369.5 359.5 L 369.5 355.5 M 378.5 359.5 L 378.5 355.5 M 386.5 359.5 L 386.5 355.5 M 395.5 359.5 L 395.5 355.5" stroke-opacity="1" stroke-linejoin="bevel" stroke-miterlimit="10"/><text fill="rgb(68,68,68)" stroke="none" font-family="helvetica" font-size="11px" font-style="normal" font-weight="normal" text-decoration="normal" x="45.941162109375" y="373.89013671875" text-anchor="start" dominant-baseline="alphabetic" transform="matrix(1, 0, 0, 1, 0.5, 0.5)" fill-opacity="1">5</text><text fill="none" stroke="rgb(0,0,0)" font-family="helvetica" font-size="11px" font-style="normal" font-weight="normal" text-decoration="normal" x="45.941162109375" y="373.89013671875" text-anchor="start" dominant-baseline="alphabetic" transform="matrix(1, 0, 0, 1, 0.5, 0.5)" stroke-opacity="0" stroke-linejoin="bevel" stroke-miterlimit="10">5</text><text fill="rgb(68,68,68)" stroke="none" font-family="helvetica" font-size="11px" font-style="normal" font-weight="normal" text-decoration="normal" x="89.191162109375" y="373.89013671875" text-anchor="start" dominant-baseline="alphabetic" transform="matrix(1, 0, 0, 1, 0.5, 0.5)" fill-opacity="1">6</text><text fill="none" stroke="rgb(0,0,0)" font-family="helvetica" font-size="11px" font-style="normal" font-weight="normal" text-decoration="normal" x="89.191162109375" y="373.89013671875" text-anchor="start" dominant-baseline="alphabetic" transform="matrix(1, 0, 0, 1, 0.5, 0.5)" stroke-opacity="0" stroke-linejoin="bevel" stroke-miterlimit="10">6</text><text fill="rgb(68,68,68)" stroke="none" font-family="helvetica" font-size="11px" font-style="normal" font-weight="normal" text-decoration="normal" x="132.441162109375" y="373.89013671875" text-anchor="start" dominant-baseline="alphabetic" transform="matrix(1, 0, 0, 1, 0.5, 0.5)" fill-opacity="1">7</text><text fill="none" stroke="rgb(0,0,0)" font-family="helvetica" font-size="11px" font-style="normal" font-weight="normal" text-decoration="normal" x="132.441162109375" y="373.89013671875" text-anchor="start" dominant-baseline="alphabetic" transform="matrix(1, 0, 0, 1, 0.5, 0.5)" stroke-opacity="0" stroke-linejoin="bevel" stroke-miterlimit="10">7</text><text fill="rgb(68,68,68)" stroke="none" font-family="helvetica" font-size="11px" font-style="normal" font-weight="normal" text-decoration="normal" x="175.691162109375" y="373.89013671875" text-anchor="start" dominant-baseline="alphabetic" transform="matrix(1, 0, 0, 1, 0.5, 0.5)" fill-opacity="1">8</text><text fill="none" stroke="rgb(0,0,0)" font-family="helvetica" font-size="11px" font-style="normal" font-weight="normal" text-decoration="normal" x="175.691162109375" y="373.89013671875" text-anchor="start" dominant-baseline="alphabetic" transform="matrix(1, 0, 0, 1, 0.5, 0.5)" stroke-opacity="0" stroke-linejoin="bevel" stroke-miterlimit="10">8</text><text fill="rgb(68,68,68)" stroke="none" font-family="helvetica" font-size="11px" font-style="normal" font-weight="normal" text-decoration="normal" x="218.941162109375" y="373.89013671875" text-anchor="start" dominant-baseline="alphabetic" transform="matrix(1, 0, 0, 1, 0.5, 0.5)" fill-opacity="1">9</text><text fill="none" stroke="rgb(0,0,0)" font-family="helvetica" font-size="11px" font-style="normal" font-weight="normal" text-decoration="normal" x="218.941162109375" y="373.89013671875" text-anchor="start" dominant-baseline="alphabetic" transform="matrix(1, 0, 0, 1, 0.5, 0.5)" stroke-opacity="0" stroke-linejoin="bevel" stroke-miterlimit="10">9</text><text fill="rgb(68,68,68)" stroke="none" font-family="helvetica" font-size="11px" font-style="normal" font-weight="normal" text-decoration="normal" x="259.13232421875" y="373.89013671875" text-anchor="start" dominant-baseline="alphabetic" transform="matrix(1, 0, 0, 1, 0.5, 0.5)" fill-opacity="1">10</text><text fill="none" stroke="rgb(0,0,0)" font-family="helvetica" font-size="11px" font-style="normal" font-weight="normal" text-decoration="normal" x="259.13232421875" y="373.89013671875" text-anchor="start" dominant-baseline="alphabetic" transform="matrix(1, 0, 0, 1, 0.5, 0.5)" stroke-opacity="0" stroke-linejoin="bevel" stroke-miterlimit="10">10</text><text fill="rgb(68,68,68)" stroke="none" font-family="helvetica" font-size="11px" font-style="normal" font-weight="normal" text-decoration="normal" x="302.787841796875" y="373.89013671875" text-anchor="start" dominant-baseline="alphabetic" transform="matrix(1, 0, 0, 1, 0.5, 0.5)" fill-opacity="1">11</text><text fill="none" stroke="rgb(0,0,0)" font-family="helvetica" font-size="11px" font-style="normal" font-weight="normal" text-decoration="normal" x="302.787841796875" y="373.89013671875" text-anchor="start" dominant-baseline="alphabetic" transform="matrix(1, 0, 0, 1, 0.5, 0.5)" stroke-opacity="0" stroke-linejoin="bevel" stroke-miterlimit="10">11</text><text fill="rgb(68,68,68)" stroke="none" font-family="helvetica" font-size="11px" font-style="normal" font-weight="normal" text-decoration="normal" x="345.63232421875" y="373.89013671875" text-anchor="start" dominant-baseline="alphabetic" transform="matrix(1, 0, 0, 1, 0.5, 0.5)" fill-opacity="1">12</text><text fill="none" stroke="rgb(0,0,0)" font-family="helvetica" font-size="11px" font-style="normal" font-weight="normal" text-decoration="normal" x="345.63232421875" y="373.89013671875" text-anchor="start" dominant-baseline="alphabetic" transform="matrix(1, 0, 0, 1, 0.5, 0.5)" stroke-opacity="0" stroke-linejoin="bevel" stroke-miterlimit="10">12</text><text fill="rgb(68,68,68)" stroke="none" font-family="helvetica" font-size="11px" font-style="normal" font-weight="normal" text-decoration="normal" x="387.7646484375" y="373.89013671875" text-anchor="start" dominant-baseline="alphabetic" transform="matrix(1, 0, 0, 1, 0.5, 0.5)" fill-opacity="1">13</text><text fill="none" stroke="rgb(0,0,0)" font-family="helvetica" font-size="11px" font-style="normal" font-weight="normal" text-decoration="normal" x="387.7646484375" y="373.89013671875" text-anchor="start" dominant-baseline="alphabetic" transform="matrix(1, 0, 0, 1, 0.5, 0.5)" stroke-opacity="0" stroke-linejoin="bevel" stroke-miterlimit="10">13</text><text fill="rgb(68,68,68)" stroke="none" font-family="helvetica" font-size="13px" font-style="italic" font-weight="normal" text-decoration="normal" x="208.635009765625" y="393.89013671875" text-anchor="start" dominant-baseline="alphabetic" transform="matrix(1, 0, 0, 1, 0.5, 0.5)" fill-opacity="1">Birth</text><text fill="none" stroke="rgb(0,0,0)" font-family="helvetica" font-size="13px" font-style="italic" font-weight="normal" text-decoration="normal" x="208.635009765625" y="393.89013671875" text-anchor="start" dominant-baseline="alphabetic" transform="matrix(1, 0, 0, 1, 0.5, 0.5)" stroke-opacity="0" stroke-linejoin="bevel" stroke-miterlimit="10">Birth</text><path fill="none" stroke="rgb(0,0,0)" paint-order="fill" d="M 49.5 355.5 L 49.5 27.5" stroke-opacity="1" stroke-linejoin="bevel" stroke-miterlimit="10"/><path fill="none" stroke="rgb(0,0,0)" paint-order="fill" d="M 43.5 355.5 L 51.5 355.5 M 43.5 314.5 L 51.5 314.5 M 43.5 273.5 L 51.5 273.5 M 43.5 232.5 L 51.5 232.5 M 43.5 191.5 L 51.5 191.5 M 43.5 150.5 L 51.5 150.5 M 43.5 109.5 L 51.5 109.5 M 43.5 68.5 L 51.5 68.5 M 43.5 27.5 L 51.5 27.5" stroke-opacity="1" stroke-linejoin="bevel" stroke-miterlimit="10"/><path fill="none" stroke="rgb(0,0,0)" paint-order="fill" d="M 45.5 355.5 L 49.5 355.5 M 45.5 347.5 L 49.5 347.5 M 45.5 339.5 L 49.5 339.5 M 45.5 330.5 L 49.5 330.5 M 45.5 322.5 L 49.5 322.5 M 45.5 314.5 L 49.5 314.5 M 45.5 306.5 L 49.5 306.5 M 45.5 298.5 L 49.5 298.5 M 45.5 289.5 L 49.5 289.5 M 45.5 281.5 L 49.5 281.5 M 45.5 273.5 L 49.5 273.5 M 45.5 265.5 L 49.5 265.5 M 45.5 257.5 L 49.5 257.5 M 45.5 248.5 L 49.5 248.5 M 45.5 240.5 L 49.5 240.5 M 45.5 232.5 L 49.5 232.5 M 45.5 224.5 L 49.5 224.5 M 45.5 216.5 L 49.5 216.5 M 45.5 207.5 L 49.5 207.5 M 45.5 199.5 L 49.5 199.5 M 45.5 191.5 L 49.5 191.5 M 45.5 183.5 L 49.5 183.5 M 45.5 175.5 L 49.5 175.5 M 45.5 166.5 L 49.5 166.5 M 45.5 158.5 L 49.5 158.5 M 45.5 150.5 L 49.5 150.5 M 45.5 142.5 L 49.5 142.5 M 45.5 134.5 L 49.5 134.5 M 45.5 125.5 L 49.5 125.5 M 45.5 117.5 L 49.5 117.5 M 45.5 109.5 L 49.5 109.5 M 45.5 101.5 L 49.5 101.5 M 45.5 93.5 L 49.5 93.5 M 45.5 84.5 L 49.5 84.5 M 45.5 76.5 L 49.5 76.5 M 45.5 68.5 L 49.5 68.5 M 45.5 60.5 L 49.5 60.5 M 45.5 52.5 L 49.5 52.5 M 45.5 43.5 L 49.5 43.5 M 45.5 35.5 L 49.5 35.5 M 45.5 27.5 L 49.5 27.5" stroke-opacity="1" stroke-linejoin="bevel" stroke-miterlimit="10"/><text fill="rgb(68,68,68)" stroke="none" font-family="helvetica" font-size="11px" font-style="normal" font-weight="normal" text-decoration="normal" x="31.88232421875" y="358.945068359375" text-anchor="start" dominant-baseline="alphabetic" transform="matrix(1, 0, 0, 1, 0.5, 0.5)" fill-opacity="1">5</text><text fill="none" stroke="rgb(0,0,0)" font-family="helvetica" font-size="11px" font-style="normal" font-weight="normal" text-decoration="normal" x="31.88232421875" y="358.945068359375" text-anchor="start" dominant-baseline="alphabetic" transform="matrix(1, 0, 0, 1, 0.5, 0.5)" stroke-opacity="0" stroke-linejoin="bevel" stroke-miterlimit="10">5</text><text fill="rgb(68,68,68)" stroke="none" font-family="helvetica" font-size="11px" font-style="normal" font-weight="normal" text-decoration="normal" x="31.88232421875" y="317.945068359375" text-anchor="start" dominant-baseline="alphabetic" transform="matrix(1, 0, 0, 1, 0.5, 0.5)" fill-opacity="1">6</text><text fill="none" stroke="rgb(0,0,0)" font-family="helvetica" font-size="11px" font-style="normal" font-weight="normal" text-decoration="normal" x="31.88232421875" y="317.945068359375" text-anchor="start" dominant-baseline="alphabetic" transform="matrix(1, 0, 0, 1, 0.5, 0.5)" stroke-opacity="0" stroke-linejoin="bevel" stroke-miterlimit="10">6</text><text fill="rgb(68,68,68)" stroke="none" font-family="helvetica" font-size="11px" font-style="normal" font-weight="normal" text-decoration="normal" x="31.88232421875" y="276.945068359375" text-anchor="start" dominant-baseline="alphabetic" transform="matrix(1, 0, 0, 1, 0.5, 0.5)" fill-opacity="1">7</text><text fill="none" stroke="rgb(0,0,0)" font-family="helvetica" font-size="11px" font-style="normal" font-weight="normal" text-decoration="normal" x="31.88232421875" y="276.945068359375" text-anchor="start" dominant-baseline="alphabetic" transform="matrix(1, 0, 0, 1, 0.5, 0.5)" stroke-opacity="0" stroke-linejoin="bevel" stroke-miterlimit="10">7</text><text fill="rgb(68,68,68)" stroke="none" font-family="helvetica" font-size="11px" font-style="normal" font-weight="normal" text-decoration="normal" x="31.88232421875" y="235.945068359375" text-anchor="start" dominant-baseline="alphabetic" transform="matrix(1, 0, 0, 1, 0.5, 0.5)" fill-opacity="1">8</text><text fill="none" stroke="rgb(0,0,0)" font-family="helvetica" font-size="11px" font-style="normal" font-weight="normal" text-decoration="normal" x="31.88232421875" y="235.945068359375" text-anchor="start" dominant-baseline="alphabetic" transform="matrix(1, 0, 0, 1, 0.5, 0.5)" stroke-opacity="0" stroke-linejoin="bevel" stroke-miterlimit="10">8</text><text fill="rgb(68,68,68)" stroke="none" font-family="helvetica" font-size="11px" font-style="normal" font-weight="normal" text-decoration="normal" x="31.88232421875" y="194.945068359375" text-anchor="start" dominant-baseline="alphabetic" transform="matrix(1, 0, 0, 1, 0.5, 0.5)" fill-opacity="1">9</text><text fill="none" stroke="rgb(0,0,0)" font-family="helvetica" font-size="11px" font-style="normal" font-weight="normal" text-decoration="normal" x="31.88232421875" y="194.945068359375" text-anchor="start" dominant-baseline="alphabetic" transform="matrix(1, 0, 0, 1, 0.5, 0.5)" stroke-opacity="0" stroke-linejoin="bevel" stroke-miterlimit="10">9</text><text fill="rgb(68,68,68)" stroke="none" font-family="helvetica" font-size="11px" font-style="normal" font-weight="normal" text-decoration="normal" x="25.7646484375" y="153.945068359375" text-anchor="start" dominant-baseline="alphabetic" transform="matrix(1, 0, 0, 1, 0.5, 0.5)" fill-opacity="1">10</text><text fill="none" stroke="rgb(0,0,0)" font-family="helvetica" font-size="11px" font-style="normal" font-weight="normal" text-decoration="normal" x="25.7646484375" y="153.945068359375" text-anchor="start" dominant-baseline="alphabetic" transform="matrix(1, 0, 0, 1, 0.5, 0.5)" stroke-opacity="0" stroke-linejoin="bevel" stroke-miterlimit="10">10</text><text fill="rgb(68,68,68)" stroke="none" font-family="helvetica" font-size="11px" font-style="normal" font-weight="normal" text-decoration="normal" x="26.57568359375" y="112.945068359375" text-anchor="start" dominant-baseline="alphabetic" transform="matrix(1, 0, 0, 1, 0.5, 0.5)" fill-opacity="1">11</text><text fill="none" stroke="rgb(0,0,0)" font-family="helvetica" font-size="11px" font-style="normal" font-weight="normal" text-decoration="normal" x="26.57568359375" y="112.945068359375" text-anchor="start" dominant-baseline="alphabetic" transform="matrix(1, 0, 0, 1, 0.5, 0.5)" stroke-opacity="0" stroke-linejoin="bevel" stroke-miterlimit="10">11</text><text fill="rgb(68,68,68)" stroke="none" font-family="helvetica" font-size="11px" font-style="normal" font-weight="normal" text-decoration="normal" x="25.7646484375" y="71.945068359375" text-anchor="start" dominant-baseline="alphabetic" transform="matrix(1, 0, 0, 1, 0.5, 0.5)" fill-opacity="1">12</text><text fill="none" stroke="rgb(0,0,0)" font-family="helvetica" font-size="11px" font-style="normal" font-weight="normal" text-decoration="normal" x="25.7646484375" y="71.945068359375" text-anchor="start" dominant-baseline="alphabetic" transform="matrix(1, 0, 0, 1, 0.5, 0.5)" stroke-opacity="0" stroke-linejoin="bevel" stroke-miterlimit="10">12</text><text fill="rgb(68,68,68)" stroke="none" font-family="helvetica" font-size="11px" font-style="normal" font-weight="normal" text-decoration="normal" x="25.7646484375" y="30.945068359375" text-anchor="start" dominant-baseline="alphabetic" transform="matrix(1, 0, 0, 1, 0.5, 0.5)" fill-opacity="1">13</text><text fill="none" stroke="rgb(0,0,0)" font-family="helvetica" font-size="11px" font-style="normal" font-weight="normal" text-decoration="normal" x="25.7646484375" y="30.945068359375" text-anchor="start" dominant-baseline="alphabetic" transform="matrix(1, 0, 0, 1, 0.5, 0.5)" stroke-opacity="0" stroke-linejoin="bevel" stroke-miterlimit="10">13</text><text fill="rgb(68,68,68)" stroke="none" font-family="helvetica" font-size="13px" font-style="italic" font-weight="normal" text-decoration="normal" x="0.419677734375" y="188" text-anchor="start" dominant-baseline="alphabetic" transform="matrix(6.123233995736766e-17, -1, 1, 6.123233995736766e-17, -172.7353515625, 209.2646484375)" fill-opacity="1">Death</text><text fill="none" stroke="rgb(0,0,0)" font-family="helvetica" font-size="13px" font-style="italic" font-weight="normal" text-decoration="normal" x="0.419677734375" y="188" text-anchor="start" dominant-baseline="alphabetic" transform="matrix(6.123233995736766e-17, -1, 1, 6.123233995736766e-17, -172.7353515625, 209.2646484375)" stroke-opacity="0" stroke-linejoin="bevel" stroke-miterlimit="10">Death</text><text fill="rgb(68,68,68)" stroke="none" font-family="helvetica" font-size="13px" font-style="normal" font-weight="bold" text-decoration="normal" x="49" y="19" text-anchor="start" dominant-baseline="alphabetic" transform="matrix(1, 0, 0, 1, 0.5, 0.5)" fill-opacity="1">Persistence diagram</text><text fill="none" stroke="rgb(0,0,0)" font-family="helvetica" font-size="13px" font-style="normal" font-weight="bold" text-decoration="normal" x="49" y="19" text-anchor="start" dominant-baseline="alphabetic" transform="matrix(1, 0, 0, 1, 0.5, 0.5)" stroke-opacity="0" stroke-miterlimit="10" stroke-dasharray="">Persistence diagram</text></svg>